<?xml version="1.0" standalone="no"?>
<!DOCTYPE svg PUBLIC "-//W3C//DTD SVG 20010904//EN"
 "http://www.w3.org/TR/2001/REC-SVG-20010904/DTD/svg10.dtd">
<svg version="1.0" xmlns="http://www.w3.org/2000/svg"
 width="400.000000pt" height="400.000000pt" viewBox="0 0 400.000000 400.000000"
 preserveAspectRatio="xMidYMid meet">

<g transform="translate(0.000000,400.000000) scale(0.100000,-0.100000)"
fill="#000000" stroke="none">
<path d="M1954 3926 c-71 -33 -97 -69 -91 -124 4 -41 3 -43 -18 -38 -12 3 -58
-3 -100 -14 -43 -11 -99 -20 -125 -20 -133 0 -360 -99 -360 -158 0 -7 12 1 26
18 34 39 120 83 204 103 79 19 150 27 150 19 0 -4 -28 -23 -62 -42 -34 -19
-89 -55 -121 -78 -33 -24 -78 -50 -100 -58 -63 -22 -119 -58 -170 -109 -48
-47 -107 -149 -107 -182 1 -10 12 8 25 41 14 32 41 78 61 102 38 47 132 116
174 129 20 6 13 -6 -36 -56 -33 -35 -83 -91 -111 -124 -28 -33 -76 -85 -106
-116 -30 -31 -61 -73 -68 -93 -10 -27 -24 -41 -54 -55 -53 -26 -120 -35 -173
-23 -36 8 -41 8 -31 -4 6 -7 26 -19 45 -26 40 -14 41 -21 13 -51 -24 -25 -69
-110 -69 -129 0 -7 14 12 31 42 40 73 83 116 133 134 23 7 50 17 61 22 19 7
19 7 3 -12 -10 -11 -21 -36 -24 -55 -4 -19 -21 -50 -37 -69 -41 -47 -100 -180
-80 -180 5 0 14 15 21 33 l13 32 15 -35 15 -34 21 34 c11 19 32 49 46 65 27
33 119 105 133 105 5 0 -11 -24 -35 -54 -51 -63 -81 -142 -73 -195 4 -33 1
-39 -22 -49 -35 -16 -96 -106 -126 -187 -27 -69 -31 -128 -15 -184 5 -19 8
-37 5 -39 -10 -10 -103 21 -153 51 -43 26 -56 40 -72 82 l-21 50 5 -56 4 -57
-121 -4 c-79 -3 -139 -11 -171 -22 -84 -30 -186 -98 -244 -163 -51 -56 -55
-65 -57 -112 l-2 -50 36 60 c57 96 131 172 198 202 88 39 273 65 191 27 -16
-7 -28 -19 -28 -26 0 -7 -34 -39 -76 -70 -77 -58 -117 -106 -111 -134 2 -9 12
-14 25 -13 12 2 22 -1 22 -6 0 -16 -68 -41 -113 -41 -25 0 -48 -4 -51 -8 -2
-4 25 -6 62 -5 64 3 65 3 37 -10 -16 -8 -53 -19 -82 -26 -28 -7 -60 -19 -70
-28 -17 -14 -17 -14 2 -8 50 17 157 35 168 28 6 -4 25 -8 42 -10 50 -5 59 -11
45 -28 -8 -10 -31 -15 -71 -15 -33 0 -59 -4 -59 -10 0 -5 -7 -7 -16 -3 -15 5
-15 3 0 -26 22 -42 8 -39 -31 6 -25 30 -34 35 -44 26 -15 -15 2 -55 41 -91
l25 -23 -25 12 c-14 6 -37 21 -53 31 -15 11 -27 15 -27 9 0 -18 64 -58 163
-101 105 -45 157 -79 124 -80 -10 0 -34 7 -54 15 -20 9 -44 13 -54 10 -10 -4
-61 5 -113 19 -51 14 -96 26 -99 26 -3 0 -6 -197 -7 -439 0 -383 2 -440 15
-451 18 -15 17 -15 39 25 10 17 14 21 11 10 -4 -11 -9 -29 -12 -40 -4 -19 -3
-19 9 -1 7 10 23 31 36 45 l23 26 -15 -32 c-23 -47 -19 -76 4 -33 45 86 146
160 217 160 52 0 203 -23 203 -31 0 -8 -146 -66 -201 -78 -24 -6 -68 -11 -96
-11 -29 0 -53 -4 -53 -10 0 -5 23 -10 50 -10 28 0 50 -2 50 -5 0 -3 -16 -20
-36 -37 -42 -37 -64 -77 -64 -114 0 -25 3 -22 25 22 14 27 38 58 53 69 l27 20
-20 -30 c-32 -49 -55 -98 -55 -117 0 -29 26 -21 40 12 22 52 29 43 25 -27 -4
-61 -4 -63 5 -24 26 122 163 246 306 276 71 15 166 20 177 9 3 -3 -8 -18 -24
-31 -60 -51 -155 -220 -134 -241 2 -3 20 11 40 31 32 32 35 33 35 14 0 -19 3
-18 21 11 25 38 32 41 19 7 -8 -20 -6 -25 6 -25 8 0 28 -7 45 -15 l30 -16 -78
-56 c-43 -30 -112 -88 -154 -129 -42 -41 -84 -74 -93 -74 -25 0 -91 -36 -131
-72 -36 -31 -75 -95 -75 -120 1 -7 10 4 20 24 30 56 87 107 164 144 42 20 92
57 130 94 77 75 163 140 239 181 33 17 62 41 67 53 9 25 84 94 113 105 11 4
53 75 101 167 152 295 140 285 230 191 34 -35 71 -67 84 -71 12 -4 22 -11 22
-16 0 -5 -38 -36 -85 -70 -47 -34 -85 -64 -85 -67 0 -4 46 27 174 119 42 30
91 36 129 17 42 -22 100 -73 128 -112 39 -53 37 -34 -2 29 -50 78 -158 201
-270 304 -109 102 -112 104 -164 126 -42 17 -46 11 -7 -10 56 -31 56 -31 34
-62 -11 -16 -61 -107 -113 -203 l-92 -173 -18 33 c-10 19 -21 54 -25 79 -7 40
-8 42 -15 20 -7 -26 -10 26 -11 175 l0 70 -12 -65 c-8 -45 -14 -59 -19 -47
-11 28 -8 67 4 67 7 0 9 11 6 27 -9 49 39 111 118 151 39 19 248 102 292 116
12 4 20 13 17 19 -15 41 137 195 244 248 116 57 208 49 292 -25 17 -16 49 -26
105 -35 94 -15 362 -102 423 -137 41 -24 42 -26 42 -79 0 -30 5 -57 11 -61 17
-10 169 -370 169 -401 0 -21 -63 -143 -75 -143 -5 0 -25 29 -43 64 -64 124
-245 385 -338 486 -17 19 -55 62 -84 95 -30 33 -60 64 -69 69 -9 5 17 -26 57
-70 211 -231 405 -521 486 -727 25 -62 26 -69 11 -89 -25 -37 -17 -38 18 -5
18 18 31 37 29 43 -1 5 4 39 13 75 19 80 32 323 18 332 -7 4 -9 -10 -6 -41 l4
-47 -24 60 c-38 94 -38 95 -50 88 -7 -4 -8 0 -4 12 5 12 -12 51 -53 122 -33
58 -60 114 -60 124 0 24 31 25 65 3 26 -17 119 -165 155 -246 22 -51 36 -65
43 -46 10 31 208 -97 243 -157 13 -22 18 -50 17 -110 0 -109 -68 -323 -121
-385 -26 -31 -37 -38 -43 -28 -15 23 -10 -24 10 -105 11 -42 19 -84 19 -94 -1
-10 29 -79 65 -155 37 -75 67 -141 67 -147 0 -6 7 -11 16 -11 14 0 15 2 3 18
-12 15 -12 16 1 5 10 -7 60 -13 130 -14 63 -1 198 -4 300 -5 l185 -4 -33 31
c-31 28 -35 44 -11 44 5 0 15 11 22 25 7 14 23 26 35 28 13 2 27 13 31 25 13
33 42 54 86 62 22 3 48 14 58 22 24 23 35 7 16 -26 -9 -15 -13 -35 -9 -45 5
-16 9 -15 33 14 15 17 27 37 27 44 0 7 11 27 25 46 15 20 25 47 25 66 0 31 -2
32 -28 25 -34 -10 -55 7 -40 33 9 17 9 17 -19 0 -23 -14 -20 -9 15 27 23 25
42 50 42 56 0 6 7 16 15 23 8 7 15 21 15 32 0 20 -18 8 -114 -74 -27 -23 -28
-26 -8 -21 33 8 28 -19 -8 -46 -17 -12 -28 -25 -26 -29 10 -16 -39 -86 -64
-92 -14 -3 -34 -20 -46 -37 -38 -56 -70 -90 -92 -97 -12 -4 -27 -16 -32 -27
-12 -21 -40 -26 -40 -6 0 6 -10 17 -23 23 -106 55 -173 96 -217 134 l-51 46
35 38 c20 20 36 39 36 40 0 9 -51 -4 -74 -19 -25 -17 -26 -16 -28 1 0 11 -1
26 0 35 1 12 -4 15 -18 12 -23 -6 -24 -1 -9 30 l10 22 -19 -22 -20 -23 -16 24
c-8 13 -18 35 -21 49 -6 21 -2 26 34 40 22 9 58 32 78 51 21 18 57 43 80 55
23 12 58 35 77 51 31 27 40 30 106 30 l73 0 -5 -82 c-8 -135 -44 -210 -123
-259 l-30 -19 26 0 c34 0 107 76 145 151 22 44 28 71 32 149 4 84 8 100 33
140 16 24 36 67 45 95 21 68 29 191 16 239 -9 32 -8 45 7 75 54 105 53 344 -2
498 -23 68 -19 87 14 57 24 -21 99 -131 99 -144 0 -5 15 -20 32 -34 23 -17 35
-21 40 -13 4 7 19 -15 37 -53 l31 -65 0 296 0 296 -37 35 c-21 20 -50 54 -65
76 -28 42 -202 179 -256 201 -57 24 -37 34 56 29 107 -5 197 -42 260 -109 l42
-43 0 55 c0 41 -5 60 -17 71 -10 9 -66 31 -125 49 -73 23 -103 36 -93 42 8 4
54 14 102 22 l88 15 -75 -4 c-41 -2 -102 -11 -135 -20 -120 -31 -350 -48 -418
-31 -18 5 -29 16 -33 34 -7 29 -55 120 -85 162 -23 33 -24 43 -3 35 9 -3 46
-11 83 -17 126 -19 274 22 355 99 51 49 96 120 96 151 0 20 -5 14 -26 -27 -32
-65 -100 -125 -173 -153 -44 -18 -78 -23 -156 -23 -126 -1 -185 15 -238 65
-36 35 -39 41 -31 71 15 59 7 159 -20 237 -14 41 -24 76 -22 78 10 10 86 -129
130 -237 3 -8 3 1 0 20 -13 73 -73 175 -204 343 -18 23 -19 27 -5 27 50 0 145
-71 199 -148 14 -21 35 -63 47 -93 l20 -54 -6 50 c-8 64 -53 138 -132 220 -34
35 -66 73 -72 84 -6 11 -34 47 -61 80 -55 66 -57 71 -34 71 14 0 74 51 74 64
0 3 -19 -2 -42 -10 -70 -25 -166 -11 -253 37 -38 21 -63 39 -55 40 8 1 -3 5
-25 9 -22 5 -77 24 -122 43 l-82 34 67 27 c38 14 84 40 102 57 20 18 24 24 10
15 -41 -27 -124 -64 -181 -80 -67 -19 -136 -20 -215 -5 -51 10 -72 10 -123 -3
-37 -9 -64 -11 -68 -5 -3 5 -19 7 -37 4 -65 -10 -113 44 -88 98 13 29 95 91
137 104 30 9 30 9 -10 10 -23 0 -62 -9 -91 -23z m-77 -182 c13 -4 20 -10 17
-15 -3 -5 -11 -6 -17 -2 -7 4 -30 10 -52 14 l-40 6 35 2 c19 0 45 -2 57 -5z
m-261 -165 c-54 -48 -76 -85 -76 -129 0 -18 -11 -45 -25 -64 -42 -55 -25 -97
30 -75 11 4 35 8 54 8 29 1 33 -2 28 -19 -8 -29 5 -32 44 -8 l34 20 -25 -27
c-25 -27 -57 -47 -106 -65 -16 -7 -23 -7 -19 0 17 28 -83 -12 -141 -57 -32
-24 -36 -25 -31 -8 4 11 11 38 16 60 5 22 13 51 17 64 7 22 5 23 -20 17 -14
-3 -26 -3 -25 1 5 27 -3 43 -21 43 -11 0 -20 5 -20 11 0 6 -7 9 -15 5 -8 -3
-15 -1 -15 5 0 6 -4 7 -10 4 -5 -3 -10 -1 -10 5 0 7 -7 9 -16 6 -26 -10 20 47
93 114 42 38 69 56 73 49 9 -13 63 4 160 50 36 17 67 31 69 31 2 0 -17 -19
-43 -41z m729 -91 c29 -13 31 -21 9 -38 -13 -12 -9 -19 33 -62 l48 -49 -113 3
c-103 3 -112 2 -112 -15 0 -20 -22 -47 -39 -47 -5 0 -17 10 -25 22 -19 27 -21
72 -3 65 46 -17 57 -18 57 -4 0 24 27 28 91 13 76 -18 86 -4 40 60 -18 24 -29
48 -26 54 8 13 9 12 40 -2z m622 -35 c46 -56 83 -108 83 -117 0 -4 -22 5 -50
19 -27 14 -58 25 -69 25 -12 0 -26 12 -35 29 -9 16 -27 43 -42 60 l-26 31 50
0 c48 0 52 -2 89 -47z m-937 -225 c63 -169 110 -246 172 -279 30 -16 21 5 -22
50 -22 23 -52 65 -66 94 l-27 52 61 -57 c73 -70 101 -82 169 -73 45 5 60 2
126 -29 106 -51 158 -110 182 -208 10 -40 18 -103 19 -140 1 -55 3 -65 14 -54
7 7 16 35 20 62 l8 49 13 -63 c17 -75 6 -126 -65 -321 -61 -166 -98 -234 -153
-283 -95 -85 -315 -156 -441 -144 -87 9 -209 40 -262 67 -57 29 -125 85 -133
109 -4 11 -13 20 -21 20 -11 0 -12 -4 -4 -19 14 -28 -16 -35 -84 -21 -137 28
-221 169 -160 267 12 19 18 21 44 11 17 -5 41 -7 54 -4 20 5 26 1 35 -25 8
-25 8 -34 -4 -46 -8 -8 -18 -25 -21 -39 -14 -55 -70 -12 -62 47 3 19 1 28 -6
26 -15 -6 -12 -73 4 -92 8 -10 26 -15 44 -14 64 4 106 -12 131 -50 14 -19 25
-31 25 -26 0 6 -6 19 -14 30 -7 11 -23 49 -35 84 -12 35 -31 81 -41 102 -11
21 -20 58 -20 83 0 34 -7 52 -27 78 -15 18 -19 26 -9 18 14 -11 10 0 -12 40
-36 64 -54 144 -30 135 9 -4 19 4 26 21 8 17 18 24 28 20 12 -4 14 -1 9 14 -8
25 10 26 25 3 11 -17 11 -17 6 0 -3 9 -8 23 -11 30 -7 17 65 82 126 113 25 12
69 26 97 30 68 9 56 28 -12 21 -29 -3 -77 -18 -109 -33 -31 -15 -58 -26 -60
-23 -2 2 -7 25 -10 51 -5 36 -3 51 9 63 15 14 18 14 33 0 20 -17 35 -20 26 -5
-3 6 -1 10 6 10 8 0 8 4 -1 15 -10 13 -8 19 16 37 16 12 47 39 68 60 21 21 40
37 41 36 2 -2 10 -27 19 -57 17 -57 44 -107 53 -97 3 3 19 -2 35 -10 17 -9 32
-13 35 -11 2 3 -4 10 -15 16 -12 6 -31 26 -43 43 l-23 33 42 -37 c23 -21 45
-38 49 -38 4 0 -9 17 -29 38 -50 52 -72 99 -72 157 -1 56 34 121 60 111 8 -3
14 -1 14 4 0 6 11 10 24 10 14 0 28 5 31 10 3 6 21 10 40 10 33 0 34 -2 65
-82z m-920 -186 c0 -4 -16 -15 -35 -24 -31 -14 -34 -14 -23 -1 7 8 21 19 33
23 26 11 25 11 25 2z m417 -212 c-27 -23 -32 -10 -22 59 l7 46 19 -43 19 -44
-23 -18z m-502 -287 c-37 -87 -41 -202 -10 -250 15 -22 14 -25 -12 -47 -34
-29 -111 -43 -131 -22 -22 21 -26 89 -9 127 9 19 26 59 37 89 26 67 34 76 79
100 45 24 55 25 46 3z m1740 -138 c107 -44 53 -226 -87 -294 -59 -28 -108 -31
-108 -6 0 7 10 35 21 63 25 59 73 96 101 78 26 -16 72 22 76 62 4 37 -13 72
-33 72 -19 0 -19 -16 0 -24 18 -7 20 -67 3 -84 -24 -24 -53 -14 -66 22 -12 33
-11 42 10 99 12 31 32 34 83 12z m-105 -125 c0 -10 -9 -24 -20 -30 -18 -9 -18
-8 -9 20 12 34 29 40 29 10z m-1120 -65 c15 -28 9 -41 -15 -32 -15 7 -22 57
-7 57 5 0 15 -11 22 -25z m-410 -215 c0 -5 -24 -10 -52 -10 -38 0 -49 3 -38
10 20 13 90 13 90 0z m2190 -195 c-11 -13 -8 -13 19 -4 27 9 37 7 76 -15 71
-42 110 -104 141 -225 18 -69 13 -87 -11 -37 -19 39 -108 135 -202 218 -54 47
-63 62 -40 71 23 10 29 7 17 -8z m-2782 -85 c2 -22 -5 -28 -53 -49 -31 -13
-65 -35 -76 -49 -10 -14 -22 -23 -24 -20 -3 3 12 21 34 41 22 19 37 37 35 39
-2 3 0 18 5 34 4 16 4 40 0 52 l-9 23 43 -23 c30 -16 43 -31 45 -48z m3116
-106 c46 -60 86 -142 89 -182 1 -18 5 -32 9 -32 7 0 3 -104 -6 -160 -2 -14 -5
-28 -5 -32 -3 -25 -20 1 -41 60 -13 37 -31 84 -42 104 -10 21 -18 52 -18 70
-1 37 -24 174 -35 201 -14 33 14 17 49 -29z m-3199 -84 c3 -5 1 -10 -4 -10 -6
0 -11 5 -11 10 0 6 2 10 4 10 3 0 8 -4 11 -10z m-55 -10 c0 -5 -2 -10 -4 -10
-3 0 -8 5 -11 10 -3 6 -1 10 4 10 6 0 11 -4 11 -10z m-81 -128 c-17 -19 -35
-45 -41 -58 -8 -17 -15 -21 -23 -14 -8 7 -15 3 -23 -15 -11 -23 -10 -25 16
-25 26 -1 26 -1 7 -16 -12 -9 -21 -11 -23 -4 -2 5 -8 10 -13 10 -6 0 -5 -8 1
-20 6 -11 8 -26 4 -32 -5 -7 0 -9 14 -6 12 4 20 2 16 -3 -3 -5 6 -9 20 -9 24
0 31 10 27 35 -1 6 8 0 20 -12 19 -18 20 -24 9 -38 -7 -8 -15 -13 -18 -10 -3
2 1 11 7 19 9 11 9 16 0 22 -8 4 -9 3 -5 -5 13 -21 -33 -28 -85 -12 -35 11
-48 19 -44 29 4 12 -1 13 -26 8 -31 -6 -31 -5 -16 12 12 13 14 21 6 29 -8 8
-7 13 2 18 8 5 10 4 5 -3 -10 -17 29 -15 43 2 9 10 8 16 -4 26 -8 7 -12 17 -9
22 4 6 10 5 16 -3 6 -10 7 -7 3 9 -5 16 -2 22 8 22 9 0 17 6 20 13 7 22 38
-13 32 -37 -5 -19 -5 -19 5 -3 6 9 8 22 5 27 -3 6 1 10 9 10 8 0 20 9 26 20 9
16 8 18 -5 14 -8 -4 -15 -10 -15 -15 0 -19 -26 -8 -27 11 -2 18 3 21 42 19
l44 -3 -30 -34z m-134 -92 c3 -5 1 -10 -4 -10 -6 0 -11 5 -11 10 0 6 2 10 4
10 3 0 8 -4 11 -10z m3127 -105 c0 -8 1 -20 2 -27 1 -17 -52 -29 -97 -21 -31
5 -36 8 -25 18 11 12 91 43 111 45 4 0 8 -7 9 -15z m379 -76 c25 -83 23 -187
-6 -256 -18 -46 -35 -56 -35 -23 0 11 -9 48 -20 81 -19 55 -19 63 -6 104 9 24
18 73 22 109 4 36 11 63 15 60 5 -3 18 -37 30 -75z m-3379 16 c6 -7 9 -7 8 0
-5 25 1 28 13 5 7 -14 22 -25 35 -26 12 -1 19 3 16 8 -3 4 -9 6 -14 3 -10 -6
-23 13 -27 40 -3 17 0 16 19 -7 13 -15 36 -34 51 -42 l28 -14 -43 -1 c-24 0
-54 4 -68 10 -31 12 -54 45 -43 62 5 8 9 6 11 -8 2 -11 8 -24 14 -30z m255
-21 c-3 -3 -12 -4 -19 -1 -8 3 -5 6 6 6 11 1 17 -2 13 -5z m-60 -10 c-3 -3
-12 -4 -19 -1 -8 3 -5 6 6 6 11 1 17 -2 13 -5z m3077 -242 c22 -80 21 -88 -15
-101 -39 -13 -79 -14 -79 -2 0 5 13 38 30 73 16 34 30 69 30 76 0 32 19 6 34
-46z m-573 -294 c-24 -16 -30 -25 -26 -42 5 -17 4 -18 -4 -6 -10 13 -12 13
-20 0 -5 -8 -7 -19 -4 -25 3 -5 0 -5 -7 2 -10 10 -7 19 18 47 16 19 33 32 36
29 3 -3 8 2 12 11 3 9 11 13 16 10 6 -4 -4 -16 -21 -26z m-71 -102 c0 -3 -4
-8 -10 -11 -5 -3 -10 -1 -10 4 0 6 5 11 10 11 6 0 10 -2 10 -4z m75 -36 c3 -5
2 -10 -4 -10 -5 0 -13 5 -16 10 -3 6 -2 10 4 10 5 0 13 -4 16 -10z m140 -61
c10 -14 25 -11 25 7 0 8 -4 12 -10 9 -6 -4 -7 1 -3 11 5 15 7 14 16 -2 6 -11
12 -26 12 -36 1 -13 -3 -15 -24 -6 -14 5 -32 16 -41 23 -8 8 -28 26 -45 40
-24 20 -20 19 17 -5 26 -17 50 -35 53 -41z m14 -55 c31 -24 37 -33 25 -38 -8
-3 -12 -2 -9 4 3 6 1 10 -5 10 -7 0 -20 10 -31 23 -15 18 -18 19 -19 5 0 -9 6
-18 13 -21 6 -3 2 -4 -11 -4 -16 1 -22 6 -19 17 3 12 -2 15 -23 12 -18 -3 -29
1 -33 12 -5 14 -3 15 13 6 10 -5 26 -7 35 -4 14 6 14 8 -2 21 -16 14 -16 14 3
2 12 -8 40 -28 63 -45z m-151 -8 c1 -19 -3 -38 -9 -41 -8 -5 -9 2 -4 25 5 23
4 30 -4 26 -7 -5 -9 -1 -5 8 10 26 20 18 22 -18z m32 -10 c0 -36 -17 -41 -18
-6 0 17 4 30 9 30 5 0 9 -11 9 -24z m-71 -33 c9 -7 11 -13 6 -13 -18 0 -35 23
-34 45 1 19 1 19 6 0 3 -11 13 -25 22 -32z m914 28 c-2 -10 -17 -24 -31 -31
l-27 -12 20 24 c17 20 36 37 42 38 0 0 -1 -8 -4 -19z m-887 -76 c-3 -8 0 -16
7 -18 7 -2 9 -8 5 -12 -12 -13 -29 6 -22 27 4 15 3 18 -6 13 -9 -5 -11 -4 -6
4 10 15 29 3 22 -14z m44 -120 c0 -5 -5 -3 -10 5 -5 8 -10 20 -10 25 0 6 5 3
10 -5 5 -8 10 -19 10 -25z"/>
<path d="M2245 2970 c-3 -5 4 -11 17 -12 128 -8 199 -34 276 -100 42 -36 59
-36 33 1 -25 35 -101 85 -160 106 -49 17 -157 20 -166 5z"/>
<path d="M2290 2700 c-40 -38 -34 -48 11 -21 22 13 51 21 81 21 63 0 122 -45
164 -124 32 -60 51 -62 39 -4 -9 39 -77 113 -127 139 -22 11 -58 19 -87 19
-41 0 -54 -5 -81 -30z"/>
<path d="M2470 2726 c0 -2 7 -7 16 -10 8 -3 12 -2 9 4 -6 10 -25 14 -25 6z"/>
<path d="M1752 2690 c14 -4 32 -11 40 -15 7 -3 4 1 -6 9 -11 9 -29 16 -40 15
-17 -1 -16 -2 6 -9z"/>
<path d="M1673 2669 c-69 -20 -141 -141 -120 -201 13 -40 27 -34 27 10 0 55
39 123 86 149 42 24 103 30 135 13 11 -6 19 -7 19 -1 0 11 -74 41 -98 40 -9 0
-31 -5 -49 -10z"/>
<path d="M1593 2648 c-22 -26 -37 -48 -30 -48 3 0 17 16 31 35 30 39 30 46 -1
13z"/>
<path d="M2301 2635 c-26 -30 -31 -44 -31 -89 0 -61 5 -69 31 -53 25 15 48 -5
31 -26 -7 -8 -8 -18 -4 -23 4 -4 -1 -2 -10 5 -24 18 -23 -1 0 -22 50 -45 142
-2 163 76 21 80 -36 167 -111 167 -31 0 -44 -7 -69 -35z m67 -17 c-4 -29 -38
-38 -38 -10 0 22 8 32 27 32 9 0 13 -8 11 -22z m55 -157 c-14 -39 -41 -51 -72
-32 -10 7 -11 13 -1 31 9 18 18 21 40 16 24 -4 28 -2 24 12 -5 14 -4 14 4 3 6
-8 8 -21 5 -30z"/>
<path d="M1685 2597 c-31 -31 -35 -41 -35 -86 0 -50 16 -101 32 -101 4 0 8 7
8 15 0 8 9 15 20 15 25 0 27 -35 3 -48 -14 -9 -14 -11 7 -22 31 -17 92 2 119
37 37 46 22 152 -28 198 -10 9 -35 18 -54 22 -32 5 -41 1 -72 -30z m54 -38
c-5 -10 -14 -19 -20 -19 -16 0 -22 29 -9 45 19 22 43 0 29 -26z m27 -26 c-10
-10 -19 5 -10 18 6 11 8 11 12 0 2 -7 1 -15 -2 -18z m63 -111 c0 -11 -2 -12
-6 -4 -2 6 -9 10 -13 7 -5 -3 -12 0 -16 6 -4 8 -3 9 4 5 7 -4 12 -2 12 4 0 6
5 8 10 5 6 -3 10 -14 9 -23z m-41 -4 c18 -18 15 -27 -15 -39 -33 -12 -49 1
-34 30 13 24 31 27 49 9z"/>
<path d="M2185 2301 c3 -5 -5 -17 -17 -25 -21 -15 -21 -16 -3 -16 29 -1 55
-24 65 -57 8 -26 8 -26 9 13 1 28 -6 50 -20 68 -19 24 -48 38 -34 17z"/>
<path d="M1945 2273 c-13 -13 -16 -28 -13 -65 3 -27 10 -54 15 -59 6 -6 8 1 5
20 -7 50 12 71 66 72 l47 1 -43 9 c-50 10 -64 17 -57 30 10 15 -2 10 -20 -8z"/>
<path d="M2210 2122 c0 -6 -12 -25 -27 -44 -22 -27 -23 -29 -4 -13 27 23 45
54 37 63 -3 3 -6 0 -6 -6z"/>
<path d="M1990 2075 c13 -14 26 -25 28 -25 3 0 -5 11 -18 25 -13 14 -26 25
-28 25 -3 0 5 -11 18 -25z"/>
<path d="M2120 2040 c-8 -5 -10 -10 -5 -10 6 0 17 5 25 10 8 5 11 10 5 10 -5
0 -17 -5 -25 -10z"/>
<path d="M460 1689 c0 -5 5 -7 10 -4 6 3 10 8 10 11 0 2 -4 4 -10 4 -5 0 -10
-5 -10 -11z"/>
<path d="M225 1360 c-3 -5 1 -10 10 -10 9 0 13 5 10 10 -3 6 -8 10 -10 10 -2
0 -7 -4 -10 -10z"/>
<path d="M2328 3933 c6 -2 18 -2 25 0 6 3 1 5 -13 5 -14 0 -19 -2 -12 -5z"/>
<path d="M2489 3925 c18 -8 36 -15 40 -15 13 1 -45 29 -59 29 -8 0 0 -6 19
-14z"/>
<path d="M2540 3906 c0 -3 9 -10 20 -16 11 -6 20 -8 20 -6 0 3 -9 10 -20 16
-11 6 -20 8 -20 6z"/>
<path d="M2311 3783 c19 -23 36 -39 38 -37 3 3 -12 21 -34 42 l-38 37 34 -42z"/>
<path d="M656 3205 c-3 -9 -6 -26 -5 -38 1 -14 4 -9 9 13 9 37 7 52 -4 25z"/>
<path d="M155 1641 c22 -25 54 -45 61 -38 2 2 -15 17 -38 32 -37 24 -40 25
-23 6z"/>
<path d="M2570 1484 c1 -13 70 -81 70 -68 0 6 -16 25 -35 44 -19 19 -35 30
-35 24z"/>
<path d="M2682 1324 c12 -27 27 -71 33 -99 7 -27 13 -40 14 -29 2 33 -37 150
-54 164 -11 9 -9 -2 7 -36z"/>
<path d="M1730 820 c-1 -3 -5 -54 -9 -115 -6 -70 -18 -138 -34 -187 -14 -43
-22 -78 -18 -78 4 0 18 33 31 73 l24 72 7 -42 c4 -23 13 -51 19 -62 18 -35
-23 -114 -78 -151 -41 -27 -49 -40 -87 -134 -23 -57 -53 -124 -68 -150 l-26
-46 70 0 c52 0 87 7 140 27 62 25 74 34 106 82 32 48 34 55 19 63 -9 5 -13 14
-10 20 9 14 -10 3 -56 -33 l-35 -27 -66 17 c-72 18 -70 13 -37 98 11 29 26 53
33 53 32 0 102 104 138 202 7 20 37 14 37 -7 0 -7 -20 -40 -44 -72 -24 -32
-42 -60 -40 -62 5 -5 22 16 75 94 23 33 55 72 72 86 29 25 33 26 63 13 24 -10
45 -11 81 -5 55 11 66 7 37 -13 -47 -33 -64 -54 -21 -26 27 18 51 30 53 27 6
-6 -57 -225 -80 -277 -8 -19 -15 -29 -16 -21 0 8 -17 -5 -37 -30 -21 -24 -69
-77 -108 -118 -38 -41 -56 -65 -40 -54 31 22 110 103 158 163 26 31 28 32 22
10 -13 -56 35 48 61 130 37 119 66 200 71 200 2 0 26 -23 52 -51 l47 -52 33
17 c18 10 39 15 47 12 15 -6 94 -165 174 -351 45 -104 56 -123 65 -113 4 3
-16 50 -43 104 -27 55 -75 157 -107 229 -47 108 -56 136 -52 170 4 34 3 36 -6
17 -6 -13 -16 -21 -26 -18 -9 3 -59 17 -111 31 -176 49 -438 196 -467 262 -7
16 -13 26 -13 23z"/>
<path d="M1459 732 c-23 -15 -25 -19 -12 -30 12 -12 19 -9 48 13 19 14 35 28
35 31 0 11 -48 2 -71 -14z"/>
<path d="M2743 705 c0 -22 2 -33 5 -25 14 40 54 39 81 -2 11 -18 21 -29 21
-25 0 5 -10 22 -21 39 -18 25 -27 29 -50 24 -21 -4 -29 -1 -32 12 -2 9 -4 -1
-4 -23z"/>
<path d="M1200 684 c-179 -61 -320 -120 -320 -135 0 -4 15 0 33 10 44 26 214
89 312 117 51 14 69 23 50 23 -16 0 -50 -7 -75 -15z"/>
<path d="M2570 666 c0 -2 8 -10 18 -17 15 -13 16 -12 3 4 -13 16 -21 21 -21
13z"/>
<path d="M3960 645 c0 -2 9 -9 20 -15 16 -9 20 -8 20 5 0 8 -9 15 -20 15 -11
0 -20 -2 -20 -5z"/>
<path d="M1465 630 c-3 -5 -1 -10 4 -10 6 0 11 5 11 10 0 6 -2 10 -4 10 -3 0
-8 -4 -11 -10z"/>
<path d="M2855 618 c4 -13 11 -27 16 -33 5 -5 4 5 -2 23 -12 36 -24 44 -14 10z"/>
<path d="M3835 630 c3 -5 19 -10 36 -10 16 0 29 5 29 10 0 6 -16 10 -36 10
-21 0 -33 -4 -29 -10z"/>
<path d="M3735 600 c-3 -6 1 -7 9 -4 18 7 21 14 7 14 -6 0 -13 -4 -16 -10z"/>
<path d="M2685 579 c-4 -6 -5 -12 -2 -15 2 -3 7 2 10 11 7 17 1 20 -8 4z"/>
<path d="M1473 544 l-28 -25 32 15 c33 16 52 36 34 36 -5 0 -23 -11 -38 -26z"/>
<path d="M2590 554 c-22 -13 -22 -14 -3 -9 15 4 23 1 26 -12 3 -12 5 -8 6 10
0 15 0 27 -1 27 -2 -1 -14 -7 -28 -16z"/>
<path d="M3345 497 c-68 -23 -83 -38 -55 -51 13 -6 30 -3 54 8 19 9 39 16 45
16 19 0 61 32 55 41 -8 13 -31 10 -99 -14z"/>
<path d="M1540 494 c0 -10 -10 -29 -22 -42 -15 -16 -17 -23 -8 -20 21 7 53 65
40 73 -5 3 -10 -2 -10 -11z"/>
<path d="M1522 385 c-7 -26 -11 -50 -8 -52 7 -7 28 65 24 84 -2 9 -9 -5 -16
-32z"/>
<path d="M3987 416 c-4 -10 -5 -21 -2 -24 9 -9 17 6 13 25 -3 17 -4 17 -11 -1z"/>
<path d="M2206 303 c-4 -23 -5 -47 -1 -53 3 -5 -1 -62 -10 -126 -9 -64 -14
-118 -12 -121 14 -14 49 263 38 307 l-8 35 -7 -42z"/>
<path d="M589 289 c-23 -19 -23 -20 -2 -10 12 6 25 16 28 21 10 16 -1 12 -26
-11z"/>
<path d="M646 295 c-11 -8 -18 -17 -15 -19 2 -3 15 4 29 14 14 11 21 20 15 19
-5 0 -19 -6 -29 -14z"/>
<path d="M3965 210 c-3 -5 -1 -10 4 -10 6 0 11 5 11 10 0 6 -2 10 -4 10 -3 0
-8 -4 -11 -10z"/>
<path d="M799 163 c-13 -17 -13 -17 6 -3 11 8 22 16 24 17 2 2 0 3 -6 3 -6 0
-17 -8 -24 -17z"/>
<path d="M1985 169 c-4 -6 -5 -12 -2 -15 2 -3 7 2 10 11 7 17 1 20 -8 4z"/>
<path d="M3760 139 c0 -5 5 -7 10 -4 6 3 10 8 10 11 0 2 -4 4 -10 4 -5 0 -10
-5 -10 -11z"/>
<path d="M284 82 c-17 -27 -27 -82 -15 -82 10 0 15 13 26 68 7 36 5 40 -11 14z"/>
<path d="M3958 59 c-10 -10 -14 -19 -10 -19 5 0 17 9 27 20 10 11 14 20 9 19
-5 0 -17 -9 -26 -20z"/>
<path d="M979 33 c-13 -16 -12 -17 4 -4 9 7 17 15 17 17 0 8 -8 3 -21 -13z"/>
<path d="M572 28 c-22 -22 -12 -28 40 -28 57 0 58 3 6 24 -26 11 -38 12 -46 4z"/>
<path d="M3904 19 c-19 -22 -19 -22 4 -8 12 8 22 17 22 21 0 12 -6 9 -26 -13z"/>
</g>
</svg>
